<svg version="1" xmlns="http://www.w3.org/2000/svg" width="626.667" height="626.667" viewBox="0 0 470.000000 470.000000"><path d="M267.6 18.2c-3.2 7.8-6.3 15.4-6.8 16.9l-.9 2.6-26.1.7c-14.3.4-26.4.4-26.8-.1-.8-.8-10-21.8-12.8-29.1-1.1-2.8-2.2-4.2-3.4-4.2-10 0-60.8 17.7-60.8 21.1 0 .6 1.8 8.2 4 17.1 2.3 8.8 4 16.7 3.8 17.4-.2.8-9.6 8.3-21.1 16.8L96 92.8l-15.7-9.4L64.6 74l-2.9 2.8c-7.5 7-25 30.9-32.6 44.6l-3.3 6 2.4 2c21.2 17.6 25.7 22 25.2 24.2-.3 1.3-3.9 12.6-7.9 25.1l-7.2 22.8-5.4.6c-3 .4-11.3 1.2-18.5 1.9l-13.1 1.2-.7 6.1c-1.6 15.1-.3 57.4 1.8 59.5.5.4 27.8 2.9 34.8 3.1 1.2.1 3.5 5.8 9.8 24.6 4.5 13.5 8 24.9 7.8 25.3-.2.5-6.3 6.1-13.5 12.6C34 342.8 28 348.3 28 348.6c0 5.5 35 52.4 39.2 52.4.4 0 2.5-1.1 4.6-2.4 14.4-9.2 25.3-15.6 26.4-15.6.7 0 10.1 6.3 20.8 14.1 10.7 7.7 20.1 14.4 20.8 14.8 1.1.6.5 4.3-2.8 18.7-3.7 16.1-4 18-2.5 19 6 4.4 41.8 15.9 58.2 18.8l3.1.5 5.4-12.2 5.3-12.2v-156L167 288l-39.5-.5-.3-20.3-.3-20.2H148V136h-21l.2-20.8.3-20.7 49.8-.3L227 94v42h-20v111h129v62h-49v-13.5l-11 .3-11 .3V327h53v45h-53l.1 34.2v34.3l5.8 13.5c3.2 7.4 6.5 13.6 7.3 13.8 3.2.6 29.8-7.1 44-12.7 8.4-3.4 15.9-6.5 16.6-7 1-.6.5-4.2-2.8-17.2-2.2-9-4.3-17.1-4.6-18-.3-1.1 5.3-5.8 19.8-16.4 11.2-8.2 20.8-15.2 21.3-15.6.6-.4 8.2 3.5 16.9 8.7 8.7 5.3 16.2 9.2 16.7 8.7 13-13.6 36.9-48 36.9-53 0-.5-6.1-5.9-13.6-12.2-13.1-11.1-13.5-11.5-13-14.6.6-3 14.3-46.6 14.9-47.1.1-.2 8.4-1.1 18.4-2l18.2-1.8.8-5.5c1-7.3.8-46.9-.3-54.6l-.9-6-17.5-1.3c-9.6-.7-18-1.4-18.6-1.6-.6-.3-4.8-11.6-9.3-25.2-6.8-20.6-8-25-6.8-25.9.7-.5 6.9-5.9 13.6-12 9.1-8.2 12.1-11.4 11.7-12.8-1.4-5.6-20.1-31.9-31.6-44.5l-6.5-7.2-15.3 9.6c-8.6 5.3-16 9.3-16.8 9-.8-.3-10.7-7.1-22-15.2-15-10.8-20.3-15.1-20-16.3.9-2.8 7.6-33 7.6-33.9 0-2.3-32.4-13.8-49.3-17.6-6.3-1.4-11.8-2.6-12.3-2.6s-3.5 6.4-6.8 14.2z"/></svg>